<svg width="60" height="21" viewBox="0 0 60 21" fill="none" xmlns="http://www.w3.org/2000/svg">
<g clip-path="url(#clip0_1_26)">
<path d="M9.19901 15.4805C9.19901 15.7474 9.147 15.9981 9.043 16.2324C8.945 16.4668 8.809 16.6719 8.633 16.8477C8.464 17.0169 8.26201 17.1536 8.02701 17.2578C7.79301 17.3555 7.542 17.4043 7.276 17.4043H1.914C1.654 17.4043 1.406 17.3555 1.172 17.2578C0.938005 17.1536 0.732999 17.0169 0.556999 16.8477C0.387999 16.6719 0.251003 16.4668 0.147003 16.2324C0.0490032 15.9981 0 15.7474 0 15.4805V3H1.914V8.83985C1.927 8.58594 1.986 8.34831 2.09 8.12696C2.194 7.89909 2.331 7.70378 2.5 7.54102C2.676 7.37175 2.878 7.24154 3.106 7.15039C3.333 7.05274 3.57801 7.00391 3.83801 7.00391H7.276C7.542 7.00391 7.79301 7.05599 8.02701 7.16016C8.26201 7.25782 8.464 7.39453 8.633 7.57032C8.809 7.73959 8.945 7.94141 9.043 8.17578C9.147 8.41016 9.19901 8.66081 9.19901 8.92774V15.4805ZM1.914 8.92774V15.4805H7.276V8.92774H1.914ZM21.597 15.4805C21.597 15.7474 21.545 15.9981 21.44 16.2324C21.343 16.4668 21.206 16.6719 21.03 16.8477C20.861 17.0169 20.659 17.1536 20.425 17.2578C20.197 17.3555 19.949 17.4043 19.683 17.4043H14.517C14.256 17.4043 14.009 17.3555 13.774 17.2578C13.54 17.1536 13.335 17.0169 13.159 16.8477C12.99 16.6719 12.853 16.4668 12.749 16.2324C12.651 15.9981 12.602 15.7474 12.602 15.4805V8.92774C12.602 8.66081 12.651 8.41016 12.749 8.17578C12.853 7.94141 12.99 7.73959 13.159 7.57032C13.335 7.39453 13.54 7.25782 13.774 7.16016C14.009 7.05599 14.256 7.00391 14.517 7.00391H19.683C19.949 7.00391 20.197 7.05599 20.425 7.16016C20.659 7.25782 20.861 7.39453 21.03 7.57032C21.206 7.73959 21.343 7.94141 21.44 8.17578C21.545 8.41016 21.597 8.66081 21.597 8.92774V15.4805ZM14.517 8.92774V15.4805H19.683V8.92774H14.517ZM34.072 7.00391L30.293 12.082L34.248 17.4043H31.924L29.131 13.6445L26.328 17.4043H24.004L27.969 12.082L24.189 7.00391H26.504L29.131 10.5195L31.748 7.00391H34.072Z" fill="#343434"/>
<path d="M57 0H42C40.3431 0 39 1.34315 39 3V18C39 19.6569 40.3431 21 42 21H57C58.6569 21 60 19.6569 60 18V3C60 1.34315 58.6569 0 57 0Z" fill="#343434"/>
<path d="M48.053 7.67969V16H46.514V7.67969H48.053ZM46.436 4.47656H48.131V6.07812H46.436V4.47656ZM52.478 7.67969V16H50.939V7.67969H52.478ZM50.861 4.47656H52.557V6.07812H50.861V4.47656Z" fill="#F9F0EA"/>
</g>
<defs>
<clipPath id="clip0_1_26">
<rect width="60" height="21" fill="white"/>
</clipPath>
</defs>
</svg>
